<svg width="47" height="34" viewBox="0 0 47 34" fill="none" xmlns="http://www.w3.org/2000/svg">
<path d="M46.4667 0L12.7823 34H4.37896C1.66649 31.2771 0 27.5153 0 23.3593C0 15.0474 6.66595 8.31191 14.892 8.31191C17.9413 8.31191 20.7602 9.24341 23.1181 10.8198H23.1004C23.9336 11.3751 24.7137 12.02 25.4228 12.7366L33.8439 4.24552H29.6245L25.4228 0H46.4667ZM8.59837 29.7545L21.2211 17C20.512 16.2835 19.6787 15.6744 18.7569 15.2266C17.5868 14.6533 16.2749 14.3309 14.8743 14.3309C9.94575 14.3309 5.93908 18.3614 5.93908 23.3593C5.95681 25.8493 6.96734 28.1243 8.59837 29.7545Z" fill="black"/>
<path d="M46.4666 34H38.028L27.4575 23.3622L31.6857 19.125L46.4666 34Z" fill="black"/>
</svg>
