<svg width="78" height="24" viewBox="0 0 78 24" fill="none" xmlns="http://www.w3.org/2000/svg">
<path d="M0.125 24H1.43652V12.4619H13.0078V11.2666H1.43652V1.25586H14.0039V0.0439453H0.125V24ZM22.291 24H23.6025V0.0439453H22.291V24ZM32.8691 24H34.1641V2.25195H34.2305L49.5205 24H50.8984V0.0439453H49.5869V21.792H49.5039L34.2305 0.0439453H32.8691V24ZM58.7041 24H60.2314L68.0176 13.126H68.1006L75.8535 24H77.4307L68.9141 12.0635V11.9971L77.4805 0.0439453H75.9531L68.167 10.9512H68.084L60.3145 0.0439453H58.7373L67.2539 11.9639V12.0303L58.7041 24Z" fill="black" fill-opacity="0.87"/>
</svg>
